<svg xmlns="http://www.w3.org/2000/svg" width="32" height="31" viewBox="0 0 32 31" fill="none"><path fill-rule="evenodd" clip-rule="evenodd" d="M24.2816 17.7681C23.0444 16.5264 21.0375 16.5254 19.7992 17.7681L19.7953 17.772C19.1524 18.4172 18.1104 18.4179 17.4679 17.773C16.3639 16.6651 14.9308 15.2268 13.8268 14.1189C13.1842 13.474 13.1849 12.4283 13.8278 11.7831L13.8317 11.7792C15.07 10.5365 15.0689 8.52237 13.8317 7.28075C13.2716 6.71862 12.6417 6.08648 12.0527 5.49536C11.3391 4.77761 10.3691 4.37511 9.35899 4.37492C8.34808 4.37551 7.37916 4.77796 6.66456 5.49512L5.41539 6.74877C3.84749 8.32229 3.41271 10.7045 4.32255 12.7329L4.32514 12.7401C7.10997 18.6226 12.7701 24.3077 18.8462 27.2194L18.8498 27.2214C20.8704 28.1576 23.2517 27.7335 24.8239 26.1612C25.238 25.7853 25.658 25.3652 26.0608 24.9609C26.7754 24.2438 27.1765 23.2714 27.177 22.2568C27.1768 21.2431 26.7758 20.2696 26.0606 19.5534C25.4716 18.9623 24.8417 18.3302 24.2816 17.7681ZM23.2046 18.8489L24.9836 20.6343C25.4127 21.0649 25.6528 21.6484 25.6526 22.2566C25.6531 22.8656 25.4115 23.4489 24.9829 23.8791C24.594 24.2693 24.1887 24.6775 23.7817 25.0464L23.7537 25.0731C22.6339 26.1969 20.9358 26.5011 19.4972 25.8363C13.7291 23.0709 8.35256 17.6767 5.70932 12.0991C5.06268 10.6508 5.37441 8.95217 6.49337 7.83061L7.74255 6.57696C8.17115 6.14682 8.75238 5.90431 9.35918 5.90484C9.96528 5.90465 10.5467 6.14559 10.9757 6.5762L12.7548 8.36158C13.3973 9.00643 13.3966 10.0521 12.7537 10.6973L12.7498 10.7013C11.5115 11.944 11.5118 13.9589 12.7498 15.1997L16.3909 18.8539C17.6273 20.0963 19.635 20.0966 20.8733 18.8539L20.8772 18.8499C21.5201 18.2047 22.5613 18.2048 23.2046 18.8489Z" fill="#D3AF37"/><path fill-rule="evenodd" clip-rule="evenodd" d="M18.3625 11.2709C19.6252 11.2709 20.65 12.2994 20.65 13.5666C20.65 13.9891 20.9916 14.3319 21.4125 14.3319C21.8334 14.3319 22.175 13.9891 22.175 13.5666C22.175 11.4546 20.467 9.74048 18.3625 9.74048C17.9416 9.74048 17.6 10.0833 17.6 10.5057C17.6 10.9281 17.9416 11.2709 18.3625 11.2709Z" fill="#D3AF37"/><path fill-rule="evenodd" clip-rule="evenodd" d="M18.3625 6.67988C22.1506 6.67988 25.225 9.7653 25.225 13.567C25.225 13.9894 25.5666 14.3322 25.9875 14.3322C26.4084 14.3322 26.75 13.9894 26.75 13.567C26.75 8.92048 22.9924 5.14941 18.3625 5.14941C17.9416 5.14941 17.6 5.49224 17.6 5.91465C17.6 6.33706 17.9416 6.67988 18.3625 6.67988Z" fill="#D3AF37"/><path fill-rule="evenodd" clip-rule="evenodd" d="M18.3625 2.08833C24.6745 2.08833 29.8 7.23222 29.8 13.5668C29.8 13.9892 30.1416 14.3321 30.5625 14.3321C30.9834 14.3321 31.325 13.9892 31.325 13.5668C31.325 6.38741 25.5163 0.557861 18.3625 0.557861C17.9416 0.557861 17.6 0.900686 17.6 1.32309C17.6 1.7455 17.9416 2.08833 18.3625 2.08833Z" fill="#D3AF37"/></svg>