<svg xmlns="http://www.w3.org/2000/svg" width="18" height="17" viewBox="0 0 18 17" fill="none"><path d="M9.99892 2.21899C12.9213 2.58658 15.2096 4.87488 15.5772 7.79727C15.6323 8.26596 16.0275 8.60599 16.487 8.60599C16.5237 8.60599 16.5605 8.60599 16.5973 8.5968C17.1027 8.53247 17.4611 8.07297 17.3968 7.56753C17.1709 5.7426 16.3421 4.04536 15.0419 2.74509C13.7416 1.44483 12.0444 0.616029 10.2195 0.390189C9.71404 0.33505 9.25454 0.693457 9.1994 1.1989C9.13507 1.70435 9.49348 2.16385 9.99892 2.21899ZM10.3481 4.15806C9.86108 4.0294 9.35563 4.32348 9.22697 4.81974C9.09831 5.31599 9.39239 5.81225 9.88864 5.94091C10.3642 6.06434 10.798 6.31259 11.1454 6.65997C11.4928 7.00735 11.741 7.44124 11.8645 7.91674C11.9257 8.15299 12.0781 8.35532 12.2883 8.47936C12.4984 8.6034 12.7492 8.63902 12.9856 8.57842C13.4727 8.44976 13.7668 7.94431 13.6473 7.45725C13.4404 6.66363 13.0257 5.93955 12.4457 5.35963C11.8658 4.77971 11.1417 4.36493 10.3481 4.15806ZM15.8345 11.6019L13.5003 11.3354C13.2258 11.3032 12.9476 11.3335 12.6866 11.4243C12.4255 11.515 12.1884 11.6637 11.9931 11.8592L10.3022 13.5502C7.69336 12.2233 5.57287 10.1029 4.24606 7.49401L5.94618 5.79387C6.34135 5.3987 6.53434 4.84731 6.47001 4.28672L6.2035 1.97086C6.1514 1.52255 5.93625 1.10906 5.59902 0.80911C5.2618 0.509161 4.82604 0.343703 4.37471 0.34424H2.78486C1.74641 0.34424 0.882559 1.20809 0.946888 2.24656C1.43395 10.0948 7.71064 16.3623 15.5496 16.8494C16.5881 16.9137 17.4519 16.0498 17.4519 15.0114V13.4215C17.4611 12.4933 16.7627 11.7122 15.8345 11.6019Z" fill="white"/></svg>