<svg xmlns="http://www.w3.org/2000/svg" width="24" height="24" viewBox="0 0 24 24" fill="none"><path fill-rule="evenodd" clip-rule="evenodd" d="M17.9291 13.5993C17.0164 12.6834 15.5359 12.6826 14.6224 13.5993L14.6196 13.6022C14.1453 14.0782 13.3766 14.0787 12.9026 13.603C12.0882 12.7856 11.031 11.7246 10.2165 10.9073C9.74252 10.4316 9.74303 9.66014 10.2173 9.18417L10.2202 9.18128C11.1337 8.26453 11.1329 6.77871 10.2202 5.86276C9.80699 5.44808 9.34232 4.98175 8.90781 4.54568C8.38136 4.01618 7.66581 3.71926 6.92063 3.71912C6.17488 3.71955 5.4601 4.01644 4.93294 4.54549L4.01142 5.47032C2.85477 6.63111 2.53403 8.38851 3.20523 9.88482L3.20714 9.89019C5.26152 14.2297 9.43703 18.4236 13.9194 20.5716L13.922 20.5731C15.4127 21.2637 17.1693 20.9508 18.3292 19.791C18.6346 19.5136 18.9445 19.2038 19.2417 18.9055C19.7688 18.3765 20.0647 17.6591 20.0651 16.9107C20.065 16.1628 19.7691 15.4447 19.2415 14.9164C18.807 14.4803 18.3423 14.014 17.9291 13.5993ZM17.1346 14.3966L18.447 15.7137C18.7635 16.0314 18.9406 16.4618 18.9405 16.9106C18.9409 17.3598 18.7626 17.7901 18.4464 18.1074C18.1596 18.3953 17.8606 18.6964 17.5603 18.9686L17.5397 18.9882C16.7136 19.8173 15.4609 20.0417 14.3997 19.5513C10.1445 17.5113 6.17818 13.5319 4.22825 9.41727C3.75123 8.3489 3.98119 7.09578 4.80665 6.2684L5.72818 5.34358C6.04436 5.02626 6.47314 4.84736 6.92078 4.84775C7.3679 4.84761 7.7968 5.02535 8.11333 5.34301L9.42571 6.6601C9.89972 7.13581 9.89921 7.90723 9.42494 8.3832L9.42206 8.38609C8.50859 9.30284 8.50879 10.7892 9.42205 11.7046L12.1081 14.4003C13.0202 15.3168 14.5013 15.317 15.4148 14.4003L15.4177 14.3974C15.8919 13.9214 16.66 13.9215 17.1346 14.3966Z" fill="white"/><path fill-rule="evenodd" clip-rule="evenodd" d="M13.5625 8.80652C14.494 8.80652 15.25 9.56523 15.25 10.5001C15.25 10.8117 15.502 11.0646 15.8125 11.0646C16.123 11.0646 16.375 10.8117 16.375 10.5001C16.375 8.94201 15.115 7.67749 13.5625 7.67749C13.252 7.67749 13 7.93039 13 8.24201C13 8.55362 13.252 8.80652 13.5625 8.80652Z" fill="white"/><path fill-rule="evenodd" clip-rule="evenodd" d="M13.5625 5.41956C16.357 5.41956 18.625 7.69569 18.625 10.5002C18.625 10.8118 18.877 11.0647 19.1875 11.0647C19.498 11.0647 19.75 10.8118 19.75 10.5002C19.75 7.07246 16.978 4.29053 13.5625 4.29053C13.252 4.29053 13 4.54343 13 4.85504C13 5.16666 13.252 5.41956 13.5625 5.41956Z" fill="white"/><path fill-rule="evenodd" clip-rule="evenodd" d="M13.5625 2.03235C18.2189 2.03235 22 5.82703 22 10.5001C22 10.8117 22.252 11.0646 22.5625 11.0646C22.873 11.0646 23.125 10.8117 23.125 10.5001C23.125 5.2038 18.8399 0.90332 13.5625 0.90332C13.252 0.90332 13 1.15622 13 1.46784C13 1.77945 13.252 2.03235 13.5625 2.03235Z" fill="white"/></svg>