<svg xmlns="http://www.w3.org/2000/svg" width="44" height="36" viewBox="0 0 44 36" fill="none"> <path d="M40.2219 30.1817C44.3187 25.7354 43.9062 20.0255 43.8932 19.9604V2.59195C43.8932 2.01615 43.6644 1.46394 43.2573 1.05679C42.8501 0.649634 42.2979 0.420898 41.7221 0.420898H28.6958C26.3011 0.420898 24.3537 2.36833 24.3537 4.763V19.9604C24.3537 20.5362 24.5824 21.0884 24.9896 21.4955C25.3967 21.9027 25.9489 22.1314 26.5247 22.1314H33.2072C33.1614 23.2048 32.8407 24.2483 32.2759 25.1622C31.173 26.9012 29.0953 28.0888 26.097 28.688L24.3537 29.0354V35.1577H26.5247C32.5668 35.1577 37.1759 33.4839 40.2219 30.1817ZM16.3251 30.1817C20.4241 25.7354 20.0094 20.0255 19.9964 19.9604V2.59195C19.9964 2.01615 19.7676 1.46394 19.3605 1.05679C18.9533 0.649634 18.4011 0.420898 17.8253 0.420898H4.79901C2.40434 0.420898 0.456909 2.36833 0.456909 4.763V19.9604C0.456909 20.5362 0.685644 21.0884 1.0928 21.4955C1.49995 21.9027 2.05216 22.1314 2.62796 22.1314H9.31046C9.26459 23.2048 8.94389 24.2483 8.37908 25.1622C7.27619 26.9012 5.19849 28.0888 2.20026 28.688L0.456909 29.0354V35.1577H2.62796C8.67 35.1577 13.2791 33.4839 16.3251 30.1817Z"/> </svg>